<svg fill="#000000" xmlns="http://www.w3.org/2000/svg"  viewBox="0 0 48 48" width="100px" height="100px"><path d="M44.719,10.305C44.424,10,43.97,9.913,43.583,10.091l-0.164,0.075c-0.139,0.064-0.278,0.128-0.418,0.191	c0.407-0.649,0.73-1.343,0.953-2.061c0.124-0.396-0.011-0.829-0.339-1.085c-0.328-0.256-0.78-0.283-1.135-0.066	c-1.141,0.693-2.237,1.192-3.37,1.54C37.4,7.026,35.071,6,32.5,6c-5.247,0-9.5,4.253-9.5,9.5c0,0.005,0,0.203,0,0.5l-0.999-0.08	c-9.723-1.15-12.491-7.69-12.606-7.972c-0.186-0.47-0.596-0.813-1.091-0.916C7.81,6.927,7.297,7.082,6.939,7.439	C6.741,7.638,5,9.48,5,13c0,2.508,1.118,4.542,2.565,6.124c-0.674-0.411-1.067-0.744-1.077-0.753	c-0.461-0.402-1.121-0.486-1.669-0.208c-0.546,0.279-0.868,0.862-0.813,1.473c0.019,0.211,0.445,4.213,5.068,7.235l-0.843,0.153	c-0.511,0.093-0.938,0.444-1.128,0.928C6.914,28.437,6.988,28.984,7.3,29.4c0.105,0.141,2.058,2.68,6.299,4.14	C11.334,34.295,8.222,35,4.5,35c-0.588,0-1.123,0.344-1.366,0.88c-0.244,0.536-0.151,1.165,0.237,1.607	C3.532,37.672,7.435,42,17.5,42C34.213,42,42,26.485,42,16v-0.5c0-0.148-0.016-0.293-0.022-0.439	c2.092-2.022,2.879-3.539,2.917-3.614C45.084,11.067,45.014,10.609,44.719,10.305z"/></svg>